<svg width="128" height="128" viewBox="0 0 128 128" fill="none" xmlns="http://www.w3.org/2000/svg">
<g clip-path="url(#clip0_1092_319)">
<path d="M93.3333 10.2241C87.3277 10.3175 81.4531 11.994 76.3027 15.0842C71.1523 18.1745 66.9085 22.569 63.9999 27.8241C61.0914 22.569 56.8476 18.1745 51.6972 15.0842C46.5468 11.994 40.6722 10.3175 34.6666 10.2241C25.093 10.6401 16.073 14.8281 9.57745 21.8734C3.08186 28.9186 -0.361396 38.2483 -5.96885e-05 47.8241C-5.96885e-05 72.0748 25.5253 98.5601 46.9333 116.517C51.7131 120.534 57.7565 122.736 63.9999 122.736C70.2434 122.736 76.2868 120.534 81.0666 116.517C102.475 98.5601 128 72.0748 128 47.8241C128.361 38.2483 124.918 28.9186 118.422 21.8734C111.927 14.8281 102.907 10.6401 93.3333 10.2241Z" fill="white"/>
</g>
<defs>
<clipPath id="clip0_1092_319">
<rect width="128" height="128" fill="white"/>
</clipPath>
</defs>
</svg>
