<svg width="500" height="500" viewBox="0 0 500 500" fill="none" xmlns="http://www.w3.org/2000/svg">
<g filter="url(#filter0_d_442_6)">
<path d="M415 250C415 260.605 401.622 269.746 399.615 279.771C397.572 290.09 406.42 303.656 402.478 313.164C398.473 322.823 382.58 326.141 376.827 334.739C371.074 343.336 374.009 359.337 366.668 366.677C359.328 374.018 343.39 371.03 334.73 376.827C326.069 382.624 322.823 398.473 313.164 402.478C303.656 406.42 290.091 397.572 279.771 399.615C269.746 401.622 260.605 415 250 415C239.395 415 230.254 401.622 220.229 399.615C209.909 397.572 196.344 406.42 186.836 402.478C177.177 398.473 173.859 382.58 165.261 376.827C156.664 371.074 140.663 374.009 133.323 366.668C125.982 359.328 128.97 343.39 123.173 334.73C117.376 326.069 101.527 322.823 97.5222 313.164C93.58 303.656 102.428 290.09 100.385 279.771C98.3784 269.746 85 260.605 85 250C85 239.395 98.3784 230.254 100.385 220.229C102.428 209.91 93.58 196.344 97.5222 186.836C101.527 177.177 117.42 173.859 123.173 165.261C128.926 156.664 125.991 140.663 133.332 133.323C140.672 125.982 156.61 128.97 165.27 123.173C173.931 117.376 177.177 101.527 186.836 97.5222C196.344 93.58 209.909 102.428 220.229 100.385C230.254 98.4051 239.395 85 250 85C260.605 85 269.746 98.3784 279.771 100.385C290.091 102.428 303.656 93.58 313.164 97.5222C322.823 101.527 326.141 117.42 334.739 123.173C343.336 128.926 359.337 125.991 366.677 133.332C374.018 140.672 371.03 156.61 376.827 165.27C382.624 173.931 398.473 177.177 402.478 186.836C406.42 196.344 397.572 209.91 399.615 220.229C401.622 230.254 415 239.395 415 250Z" fill="#43BA96"/>
</g>
<defs>
<filter id="filter0_d_442_6" x="65.2" y="65.2" width="369.6" height="369.6" filterUnits="userSpaceOnUse" color-interpolation-filters="sRGB">
<feFlood flood-opacity="0" result="BackgroundImageFix"/>
<feColorMatrix in="SourceAlpha" type="matrix" values="0 0 0 0 0 0 0 0 0 0 0 0 0 0 0 0 0 0 127 0" result="hardAlpha"/>
<feOffset/>
<feGaussianBlur stdDeviation="9.9"/>
<feComposite in2="hardAlpha" operator="out"/>
<feColorMatrix type="matrix" values="0 0 0 0 1 0 0 0 0 0 0 0 0 0 0 0 0 0 1 0"/>
<feBlend mode="normal" in2="BackgroundImageFix" result="effect1_dropShadow_442_6"/>
<feBlend mode="normal" in="SourceGraphic" in2="effect1_dropShadow_442_6" result="shape"/>
</filter>
</defs>
</svg>
